<mxfile host="app.diagrams.net" agent="Mozilla/5.0 (Windows NT 10.0; Win64; x64) AppleWebKit/537.36 (KHTML, like Gecko) Chrome/138.0.0.0 Safari/537.36" version="28.0.7">
  <diagram name="PÃ¡gina-1" id="jb3xBrNLm_qnO8vLB4Wa">
    <mxGraphModel dx="2084" dy="1244" grid="1" gridSize="10" guides="1" tooltips="1" connect="1" arrows="1" fold="1" page="1" pageScale="1" pageWidth="827" pageHeight="1169" math="0" shadow="0">
      <root>
        <mxCell id="0" />
        <mxCell id="1" parent="0" />
        <mxCell id="oHu9XfbpFMJG1xRi9u3c-1" style="edgeStyle=orthogonalEdgeStyle;rounded=0;orthogonalLoop=1;jettySize=auto;html=1;exitX=0.5;exitY=0;exitDx=0;exitDy=0;endArrow=diamond;endFill=0;entryX=0.5;entryY=1;entryDx=0;entryDy=0;" edge="1" parent="1" source="oHu9XfbpFMJG1xRi9u3c-11" target="oHu9XfbpFMJG1xRi9u3c-3">
          <mxGeometry relative="1" as="geometry">
            <mxPoint x="199" y="180" as="targetPoint" />
          </mxGeometry>
        </mxCell>
        <mxCell id="oHu9XfbpFMJG1xRi9u3c-3" value="&lt;div&gt;&lt;br&gt;&lt;/div&gt;&lt;div&gt;RRHH&lt;/div&gt;" style="swimlane;fontStyle=0;align=center;verticalAlign=top;childLayout=stackLayout;horizontal=1;startSize=55;horizontalStack=0;resizeParent=1;resizeParentMax=0;resizeLast=0;collapsible=0;marginBottom=0;html=1;whiteSpace=wrap;" vertex="1" parent="1">
          <mxGeometry x="60" y="49" width="280" height="123" as="geometry" />
        </mxCell>
        <mxCell id="oHu9XfbpFMJG1xRi9u3c-4" value="-Id: int" style="text;html=1;strokeColor=none;fillColor=none;align=left;verticalAlign=middle;spacingLeft=4;spacingRight=4;overflow=hidden;rotatable=0;points=[[0,0.5],[1,0.5]];portConstraint=eastwest;whiteSpace=wrap;" vertex="1" parent="oHu9XfbpFMJG1xRi9u3c-3">
          <mxGeometry y="55" width="280" height="20" as="geometry" />
        </mxCell>
        <mxCell id="oHu9XfbpFMJG1xRi9u3c-5" value="-NombreArea: string" style="text;html=1;strokeColor=none;fillColor=none;align=left;verticalAlign=middle;spacingLeft=4;spacingRight=4;overflow=hidden;rotatable=0;points=[[0,0.5],[1,0.5]];portConstraint=eastwest;whiteSpace=wrap;" vertex="1" parent="oHu9XfbpFMJG1xRi9u3c-3">
          <mxGeometry y="75" width="280" height="20" as="geometry" />
        </mxCell>
        <mxCell id="oHu9XfbpFMJG1xRi9u3c-94" value="-Vendedor:array" style="text;html=1;strokeColor=none;fillColor=none;align=left;verticalAlign=middle;spacingLeft=4;spacingRight=4;overflow=hidden;rotatable=0;points=[[0,0.5],[1,0.5]];portConstraint=eastwest;whiteSpace=wrap;" vertex="1" parent="oHu9XfbpFMJG1xRi9u3c-3">
          <mxGeometry y="95" width="280" height="20" as="geometry" />
        </mxCell>
        <mxCell id="oHu9XfbpFMJG1xRi9u3c-6" value="" style="line;strokeWidth=1;fillColor=none;align=left;verticalAlign=middle;spacingTop=-1;spacingLeft=3;spacingRight=3;rotatable=0;labelPosition=right;points=[];portConstraint=eastwest;" vertex="1" parent="oHu9XfbpFMJG1xRi9u3c-3">
          <mxGeometry y="115" width="280" height="8" as="geometry" />
        </mxCell>
        <mxCell id="oHu9XfbpFMJG1xRi9u3c-9" value="" style="edgeStyle=orthogonalEdgeStyle;rounded=0;orthogonalLoop=1;jettySize=auto;html=1;endArrow=none;endFill=0;startArrow=diamond;startFill=0;" edge="1" parent="1" source="oHu9XfbpFMJG1xRi9u3c-28" target="oHu9XfbpFMJG1xRi9u3c-11">
          <mxGeometry relative="1" as="geometry">
            <Array as="points">
              <mxPoint x="600" y="334" />
            </Array>
          </mxGeometry>
        </mxCell>
        <mxCell id="oHu9XfbpFMJG1xRi9u3c-11" value="&lt;div&gt;&lt;br&gt;&lt;/div&gt;&lt;div&gt;Vendedor&lt;/div&gt;" style="swimlane;fontStyle=0;align=center;verticalAlign=top;childLayout=stackLayout;horizontal=1;startSize=55;horizontalStack=0;resizeParent=1;resizeParentMax=0;resizeLast=0;collapsible=0;marginBottom=0;html=1;whiteSpace=wrap;" vertex="1" parent="1">
          <mxGeometry x="95" y="272" width="210" height="123" as="geometry" />
        </mxCell>
        <mxCell id="oHu9XfbpFMJG1xRi9u3c-12" value="-Id: int" style="text;html=1;strokeColor=none;fillColor=none;align=left;verticalAlign=middle;spacingLeft=4;spacingRight=4;overflow=hidden;rotatable=0;points=[[0,0.5],[1,0.5]];portConstraint=eastwest;whiteSpace=wrap;" vertex="1" parent="oHu9XfbpFMJG1xRi9u3c-11">
          <mxGeometry y="55" width="210" height="20" as="geometry" />
        </mxCell>
        <mxCell id="oHu9XfbpFMJG1xRi9u3c-13" value="-Nombre: string" style="text;html=1;strokeColor=none;fillColor=none;align=left;verticalAlign=middle;spacingLeft=4;spacingRight=4;overflow=hidden;rotatable=0;points=[[0,0.5],[1,0.5]];portConstraint=eastwest;whiteSpace=wrap;" vertex="1" parent="oHu9XfbpFMJG1xRi9u3c-11">
          <mxGeometry y="75" width="210" height="20" as="geometry" />
        </mxCell>
        <mxCell id="oHu9XfbpFMJG1xRi9u3c-14" value="-Autorizado: bool" style="text;html=1;strokeColor=none;fillColor=none;align=left;verticalAlign=middle;spacingLeft=4;spacingRight=4;overflow=hidden;rotatable=0;points=[[0,0.5],[1,0.5]];portConstraint=eastwest;whiteSpace=wrap;" vertex="1" parent="oHu9XfbpFMJG1xRi9u3c-11">
          <mxGeometry y="95" width="210" height="20" as="geometry" />
        </mxCell>
        <mxCell id="oHu9XfbpFMJG1xRi9u3c-15" value="" style="line;strokeWidth=1;fillColor=none;align=left;verticalAlign=middle;spacingTop=-1;spacingLeft=3;spacingRight=3;rotatable=0;labelPosition=right;points=[];portConstraint=eastwest;" vertex="1" parent="oHu9XfbpFMJG1xRi9u3c-11">
          <mxGeometry y="115" width="210" height="8" as="geometry" />
        </mxCell>
        <mxCell id="oHu9XfbpFMJG1xRi9u3c-20" value="&lt;font&gt;1&lt;/font&gt;" style="text;html=1;align=center;verticalAlign=middle;resizable=0;points=[];autosize=1;strokeColor=none;fillColor=none;" vertex="1" parent="1">
          <mxGeometry x="177" y="172" width="30" height="30" as="geometry" />
        </mxCell>
        <mxCell id="oHu9XfbpFMJG1xRi9u3c-21" value="&lt;font&gt;1..*&lt;/font&gt;" style="text;html=1;align=center;verticalAlign=middle;resizable=0;points=[];autosize=1;strokeColor=none;fillColor=none;" vertex="1" parent="1">
          <mxGeometry x="192" y="244" width="40" height="30" as="geometry" />
        </mxCell>
        <mxCell id="oHu9XfbpFMJG1xRi9u3c-22" value="" style="edgeStyle=orthogonalEdgeStyle;rounded=0;orthogonalLoop=1;jettySize=auto;html=1;endArrow=none;endFill=0;startArrow=diamondThin;startFill=0;" edge="1" parent="1" source="oHu9XfbpFMJG1xRi9u3c-28" target="oHu9XfbpFMJG1xRi9u3c-39">
          <mxGeometry relative="1" as="geometry" />
        </mxCell>
        <mxCell id="oHu9XfbpFMJG1xRi9u3c-24" value="" style="edgeStyle=orthogonalEdgeStyle;rounded=0;orthogonalLoop=1;jettySize=auto;html=1;endArrow=none;endFill=0;startArrow=diamondThin;startFill=0;" edge="1" parent="1" source="oHu9XfbpFMJG1xRi9u3c-28" target="oHu9XfbpFMJG1xRi9u3c-48">
          <mxGeometry relative="1" as="geometry" />
        </mxCell>
        <mxCell id="oHu9XfbpFMJG1xRi9u3c-26" value="" style="edgeStyle=orthogonalEdgeStyle;rounded=0;orthogonalLoop=1;jettySize=auto;html=1;endArrow=none;endFill=0;startArrow=diamondThin;startFill=1;" edge="1" parent="1" source="oHu9XfbpFMJG1xRi9u3c-57" target="oHu9XfbpFMJG1xRi9u3c-28">
          <mxGeometry relative="1" as="geometry" />
        </mxCell>
        <mxCell id="oHu9XfbpFMJG1xRi9u3c-28" value="&lt;div&gt;Venta&lt;/div&gt;" style="swimlane;fontStyle=0;align=center;verticalAlign=top;childLayout=stackLayout;horizontal=1;startSize=55;horizontalStack=0;resizeParent=1;resizeParentMax=0;resizeLast=0;collapsible=0;marginBottom=0;html=1;whiteSpace=wrap;" vertex="1" parent="1">
          <mxGeometry x="419" y="500" width="380" height="163" as="geometry" />
        </mxCell>
        <mxCell id="oHu9XfbpFMJG1xRi9u3c-29" value="-Id: int" style="text;html=1;strokeColor=none;fillColor=none;align=left;verticalAlign=middle;spacingLeft=4;spacingRight=4;overflow=hidden;rotatable=0;points=[[0,0.5],[1,0.5]];portConstraint=eastwest;whiteSpace=wrap;" vertex="1" parent="oHu9XfbpFMJG1xRi9u3c-28">
          <mxGeometry y="55" width="380" height="20" as="geometry" />
        </mxCell>
        <mxCell id="oHu9XfbpFMJG1xRi9u3c-30" value="&lt;div&gt;&lt;span style=&quot;background-color: transparent; color: light-dark(rgb(0, 0, 0), rgb(255, 255, 255));&quot;&gt;-Cliente: cliente&lt;/span&gt;&lt;/div&gt;" style="text;html=1;strokeColor=none;fillColor=none;align=left;verticalAlign=middle;spacingLeft=4;spacingRight=4;overflow=hidden;rotatable=0;points=[[0,0.5],[1,0.5]];portConstraint=eastwest;whiteSpace=wrap;" vertex="1" parent="oHu9XfbpFMJG1xRi9u3c-28">
          <mxGeometry y="75" width="380" height="20" as="geometry" />
        </mxCell>
        <mxCell id="oHu9XfbpFMJG1xRi9u3c-31" value="&lt;div&gt;&lt;span style=&quot;background-color: transparent; color: light-dark(rgb(0, 0, 0), rgb(255, 255, 255));&quot;&gt;-Producto: array&lt;/span&gt;&lt;/div&gt;" style="text;html=1;strokeColor=none;fillColor=none;align=left;verticalAlign=middle;spacingLeft=4;spacingRight=4;overflow=hidden;rotatable=0;points=[[0,0.5],[1,0.5]];portConstraint=eastwest;whiteSpace=wrap;" vertex="1" parent="oHu9XfbpFMJG1xRi9u3c-28">
          <mxGeometry y="95" width="380" height="20" as="geometry" />
        </mxCell>
        <mxCell id="oHu9XfbpFMJG1xRi9u3c-32" value="&lt;div&gt;&lt;span style=&quot;background-color: transparent; color: light-dark(rgb(0, 0, 0), rgb(255, 255, 255));&quot;&gt;-Cantidad: int&lt;/span&gt;&lt;/div&gt;" style="text;html=1;strokeColor=none;fillColor=none;align=left;verticalAlign=middle;spacingLeft=4;spacingRight=4;overflow=hidden;rotatable=0;points=[[0,0.5],[1,0.5]];portConstraint=eastwest;whiteSpace=wrap;" vertex="1" parent="oHu9XfbpFMJG1xRi9u3c-28">
          <mxGeometry y="115" width="380" height="20" as="geometry" />
        </mxCell>
        <mxCell id="oHu9XfbpFMJG1xRi9u3c-34" value="-Vendedor: vendedor" style="text;html=1;strokeColor=none;fillColor=none;align=left;verticalAlign=middle;spacingLeft=4;spacingRight=4;overflow=hidden;rotatable=0;points=[[0,0.5],[1,0.5]];portConstraint=eastwest;whiteSpace=wrap;" vertex="1" parent="oHu9XfbpFMJG1xRi9u3c-28">
          <mxGeometry y="135" width="380" height="20" as="geometry" />
        </mxCell>
        <mxCell id="oHu9XfbpFMJG1xRi9u3c-33" value="" style="line;strokeWidth=1;fillColor=none;align=left;verticalAlign=middle;spacingTop=-1;spacingLeft=3;spacingRight=3;rotatable=0;labelPosition=right;points=[];portConstraint=eastwest;" vertex="1" parent="oHu9XfbpFMJG1xRi9u3c-28">
          <mxGeometry y="155" width="380" height="8" as="geometry" />
        </mxCell>
        <mxCell id="oHu9XfbpFMJG1xRi9u3c-37" value="1" style="text;html=1;align=center;verticalAlign=middle;resizable=0;points=[];autosize=1;strokeColor=none;fillColor=none;" vertex="1" parent="1">
          <mxGeometry x="295" y="338" width="30" height="30" as="geometry" />
        </mxCell>
        <mxCell id="oHu9XfbpFMJG1xRi9u3c-38" value="1" style="text;html=1;align=center;verticalAlign=middle;resizable=0;points=[];autosize=1;strokeColor=none;fillColor=none;" vertex="1" parent="1">
          <mxGeometry x="594" y="470" width="30" height="30" as="geometry" />
        </mxCell>
        <mxCell id="oHu9XfbpFMJG1xRi9u3c-39" value="&lt;div&gt;&lt;br&gt;&lt;/div&gt;&lt;div&gt;Cliente&lt;/div&gt;" style="swimlane;fontStyle=0;align=center;verticalAlign=top;childLayout=stackLayout;horizontal=1;startSize=55;horizontalStack=0;resizeParent=1;resizeParentMax=0;resizeLast=0;collapsible=0;marginBottom=0;html=1;whiteSpace=wrap;" vertex="1" parent="1">
          <mxGeometry x="95" y="511" width="210" height="143" as="geometry" />
        </mxCell>
        <mxCell id="oHu9XfbpFMJG1xRi9u3c-40" value="-Id: int" style="text;html=1;strokeColor=none;fillColor=none;align=left;verticalAlign=middle;spacingLeft=4;spacingRight=4;overflow=hidden;rotatable=0;points=[[0,0.5],[1,0.5]];portConstraint=eastwest;whiteSpace=wrap;" vertex="1" parent="oHu9XfbpFMJG1xRi9u3c-39">
          <mxGeometry y="55" width="210" height="20" as="geometry" />
        </mxCell>
        <mxCell id="oHu9XfbpFMJG1xRi9u3c-41" value="&lt;div&gt;&lt;span style=&quot;background-color: transparent; color: light-dark(rgb(0, 0, 0), rgb(255, 255, 255));&quot;&gt;-Nombre: string&lt;/span&gt;&lt;/div&gt;" style="text;html=1;strokeColor=none;fillColor=none;align=left;verticalAlign=middle;spacingLeft=4;spacingRight=4;overflow=hidden;rotatable=0;points=[[0,0.5],[1,0.5]];portConstraint=eastwest;whiteSpace=wrap;" vertex="1" parent="oHu9XfbpFMJG1xRi9u3c-39">
          <mxGeometry y="75" width="210" height="20" as="geometry" />
        </mxCell>
        <mxCell id="oHu9XfbpFMJG1xRi9u3c-42" value="-Correo: string" style="text;html=1;strokeColor=none;fillColor=none;align=left;verticalAlign=middle;spacingLeft=4;spacingRight=4;overflow=hidden;rotatable=0;points=[[0,0.5],[1,0.5]];portConstraint=eastwest;whiteSpace=wrap;" vertex="1" parent="oHu9XfbpFMJG1xRi9u3c-39">
          <mxGeometry y="95" width="210" height="20" as="geometry" />
        </mxCell>
        <mxCell id="oHu9XfbpFMJG1xRi9u3c-43" value="-Telefono: string" style="text;html=1;strokeColor=none;fillColor=none;align=left;verticalAlign=middle;spacingLeft=4;spacingRight=4;overflow=hidden;rotatable=0;points=[[0,0.5],[1,0.5]];portConstraint=eastwest;whiteSpace=wrap;" vertex="1" parent="oHu9XfbpFMJG1xRi9u3c-39">
          <mxGeometry y="115" width="210" height="20" as="geometry" />
        </mxCell>
        <mxCell id="oHu9XfbpFMJG1xRi9u3c-44" value="" style="line;strokeWidth=1;fillColor=none;align=left;verticalAlign=middle;spacingTop=-1;spacingLeft=3;spacingRight=3;rotatable=0;labelPosition=right;points=[];portConstraint=eastwest;" vertex="1" parent="oHu9XfbpFMJG1xRi9u3c-39">
          <mxGeometry y="135" width="210" height="8" as="geometry" />
        </mxCell>
        <mxCell id="oHu9XfbpFMJG1xRi9u3c-46" value="1" style="text;html=1;align=center;verticalAlign=middle;resizable=0;points=[];autosize=1;strokeColor=none;fillColor=none;" vertex="1" parent="1">
          <mxGeometry x="389" y="555" width="30" height="30" as="geometry" />
        </mxCell>
        <mxCell id="oHu9XfbpFMJG1xRi9u3c-47" value="1" style="text;html=1;align=center;verticalAlign=middle;resizable=0;points=[];autosize=1;strokeColor=none;fillColor=none;" vertex="1" parent="1">
          <mxGeometry x="295" y="580" width="30" height="30" as="geometry" />
        </mxCell>
        <mxCell id="oHu9XfbpFMJG1xRi9u3c-48" value="&lt;div&gt;&lt;br&gt;&lt;/div&gt;&lt;div&gt;Producto&lt;/div&gt;" style="swimlane;fontStyle=0;align=center;verticalAlign=top;childLayout=stackLayout;horizontal=1;startSize=55;horizontalStack=0;resizeParent=1;resizeParentMax=0;resizeLast=0;collapsible=0;marginBottom=0;html=1;whiteSpace=wrap;" vertex="1" parent="1">
          <mxGeometry x="504" y="845.5" width="210" height="123" as="geometry" />
        </mxCell>
        <mxCell id="oHu9XfbpFMJG1xRi9u3c-49" value="-Id: int" style="text;html=1;strokeColor=none;fillColor=none;align=left;verticalAlign=middle;spacingLeft=4;spacingRight=4;overflow=hidden;rotatable=0;points=[[0,0.5],[1,0.5]];portConstraint=eastwest;whiteSpace=wrap;" vertex="1" parent="oHu9XfbpFMJG1xRi9u3c-48">
          <mxGeometry y="55" width="210" height="20" as="geometry" />
        </mxCell>
        <mxCell id="oHu9XfbpFMJG1xRi9u3c-50" value="&lt;div&gt;&lt;span style=&quot;background-color: transparent; color: light-dark(rgb(0, 0, 0), rgb(255, 255, 255));&quot;&gt;-Nombre: string&lt;/span&gt;&lt;/div&gt;" style="text;html=1;strokeColor=none;fillColor=none;align=left;verticalAlign=middle;spacingLeft=4;spacingRight=4;overflow=hidden;rotatable=0;points=[[0,0.5],[1,0.5]];portConstraint=eastwest;whiteSpace=wrap;" vertex="1" parent="oHu9XfbpFMJG1xRi9u3c-48">
          <mxGeometry y="75" width="210" height="20" as="geometry" />
        </mxCell>
        <mxCell id="oHu9XfbpFMJG1xRi9u3c-51" value="-CantidadDisponible: int" style="text;html=1;strokeColor=none;fillColor=none;align=left;verticalAlign=middle;spacingLeft=4;spacingRight=4;overflow=hidden;rotatable=0;points=[[0,0.5],[1,0.5]];portConstraint=eastwest;whiteSpace=wrap;" vertex="1" parent="oHu9XfbpFMJG1xRi9u3c-48">
          <mxGeometry y="95" width="210" height="20" as="geometry" />
        </mxCell>
        <mxCell id="oHu9XfbpFMJG1xRi9u3c-52" value="" style="line;strokeWidth=1;fillColor=none;align=left;verticalAlign=middle;spacingTop=-1;spacingLeft=3;spacingRight=3;rotatable=0;labelPosition=right;points=[];portConstraint=eastwest;" vertex="1" parent="oHu9XfbpFMJG1xRi9u3c-48">
          <mxGeometry y="115" width="210" height="8" as="geometry" />
        </mxCell>
        <mxCell id="oHu9XfbpFMJG1xRi9u3c-53" value="1" style="text;html=1;align=center;verticalAlign=middle;resizable=0;points=[];autosize=1;strokeColor=none;fillColor=none;" vertex="1" parent="1">
          <mxGeometry x="582" y="658" width="30" height="30" as="geometry" />
        </mxCell>
        <mxCell id="oHu9XfbpFMJG1xRi9u3c-54" value="1..*" style="text;html=1;align=center;verticalAlign=middle;resizable=0;points=[];autosize=1;strokeColor=none;fillColor=none;" vertex="1" parent="1">
          <mxGeometry x="603" y="815" width="40" height="30" as="geometry" />
        </mxCell>
        <mxCell id="oHu9XfbpFMJG1xRi9u3c-57" value="&lt;div&gt;&lt;br&gt;&lt;/div&gt;&lt;div&gt;Entrega&lt;/div&gt;" style="swimlane;fontStyle=0;align=center;verticalAlign=top;childLayout=stackLayout;horizontal=1;startSize=55;horizontalStack=0;resizeParent=1;resizeParentMax=0;resizeLast=0;collapsible=0;marginBottom=0;html=1;whiteSpace=wrap;" vertex="1" parent="1">
          <mxGeometry x="971.35" y="520" width="270" height="123" as="geometry" />
        </mxCell>
        <mxCell id="oHu9XfbpFMJG1xRi9u3c-58" value="-Id: int" style="text;html=1;strokeColor=none;fillColor=none;align=left;verticalAlign=middle;spacingLeft=4;spacingRight=4;overflow=hidden;rotatable=0;points=[[0,0.5],[1,0.5]];portConstraint=eastwest;whiteSpace=wrap;" vertex="1" parent="oHu9XfbpFMJG1xRi9u3c-57">
          <mxGeometry y="55" width="270" height="20" as="geometry" />
        </mxCell>
        <mxCell id="oHu9XfbpFMJG1xRi9u3c-59" value="&lt;div&gt;&lt;span style=&quot;background-color: transparent; color: light-dark(rgb(0, 0, 0), rgb(255, 255, 255));&quot;&gt;-Venta: venta&lt;/span&gt;&lt;/div&gt;" style="text;html=1;strokeColor=none;fillColor=none;align=left;verticalAlign=middle;spacingLeft=4;spacingRight=4;overflow=hidden;rotatable=0;points=[[0,0.5],[1,0.5]];portConstraint=eastwest;whiteSpace=wrap;" vertex="1" parent="oHu9XfbpFMJG1xRi9u3c-57">
          <mxGeometry y="75" width="270" height="20" as="geometry" />
        </mxCell>
        <mxCell id="oHu9XfbpFMJG1xRi9u3c-61" value="-Direccion: string" style="text;html=1;strokeColor=none;fillColor=none;align=left;verticalAlign=middle;spacingLeft=4;spacingRight=4;overflow=hidden;rotatable=0;points=[[0,0.5],[1,0.5]];portConstraint=eastwest;whiteSpace=wrap;" vertex="1" parent="oHu9XfbpFMJG1xRi9u3c-57">
          <mxGeometry y="95" width="270" height="20" as="geometry" />
        </mxCell>
        <mxCell id="oHu9XfbpFMJG1xRi9u3c-62" value="" style="line;strokeWidth=1;fillColor=none;align=left;verticalAlign=middle;spacingTop=-1;spacingLeft=3;spacingRight=3;rotatable=0;labelPosition=right;points=[];portConstraint=eastwest;" vertex="1" parent="oHu9XfbpFMJG1xRi9u3c-57">
          <mxGeometry y="115" width="270" height="8" as="geometry" />
        </mxCell>
        <mxCell id="oHu9XfbpFMJG1xRi9u3c-65" value="1" style="text;html=1;align=center;verticalAlign=middle;resizable=0;points=[];autosize=1;strokeColor=none;fillColor=none;" vertex="1" parent="1">
          <mxGeometry x="797" y="555" width="30" height="30" as="geometry" />
        </mxCell>
        <mxCell id="oHu9XfbpFMJG1xRi9u3c-66" value="1" style="text;html=1;align=center;verticalAlign=middle;resizable=0;points=[];autosize=1;strokeColor=none;fillColor=none;" vertex="1" parent="1">
          <mxGeometry x="946.35" y="580" width="30" height="30" as="geometry" />
        </mxCell>
        <mxCell id="oHu9XfbpFMJG1xRi9u3c-67" value="" style="edgeStyle=orthogonalEdgeStyle;rounded=0;orthogonalLoop=1;jettySize=auto;html=1;endArrow=none;endFill=0;startArrow=diamondThin;startFill=0;" edge="1" parent="1" source="oHu9XfbpFMJG1xRi9u3c-69" target="oHu9XfbpFMJG1xRi9u3c-83">
          <mxGeometry relative="1" as="geometry" />
        </mxCell>
        <mxCell id="oHu9XfbpFMJG1xRi9u3c-69" value="&lt;div&gt;&lt;br&gt;&lt;/div&gt;Bodega" style="swimlane;fontStyle=0;align=center;verticalAlign=top;childLayout=stackLayout;horizontal=1;startSize=55;horizontalStack=0;resizeParent=1;resizeParentMax=0;resizeLast=0;collapsible=0;marginBottom=0;html=1;whiteSpace=wrap;" vertex="1" parent="1">
          <mxGeometry x="920" y="830" width="365" height="143" as="geometry" />
        </mxCell>
        <mxCell id="oHu9XfbpFMJG1xRi9u3c-70" value="-Id: int" style="text;html=1;strokeColor=none;fillColor=none;align=left;verticalAlign=middle;spacingLeft=4;spacingRight=4;overflow=hidden;rotatable=0;points=[[0,0.5],[1,0.5]];portConstraint=eastwest;whiteSpace=wrap;" vertex="1" parent="oHu9XfbpFMJG1xRi9u3c-69">
          <mxGeometry y="55" width="365" height="20" as="geometry" />
        </mxCell>
        <mxCell id="oHu9XfbpFMJG1xRi9u3c-71" value="&lt;div&gt;&lt;span style=&quot;background-color: transparent; color: light-dark(rgb(0, 0, 0), rgb(255, 255, 255));&quot;&gt;-Ubicacion: string&lt;/span&gt;&lt;/div&gt;" style="text;html=1;strokeColor=none;fillColor=none;align=left;verticalAlign=middle;spacingLeft=4;spacingRight=4;overflow=hidden;rotatable=0;points=[[0,0.5],[1,0.5]];portConstraint=eastwest;whiteSpace=wrap;" vertex="1" parent="oHu9XfbpFMJG1xRi9u3c-69">
          <mxGeometry y="75" width="365" height="20" as="geometry" />
        </mxCell>
        <mxCell id="oHu9XfbpFMJG1xRi9u3c-72" value="-Producto: array" style="text;html=1;strokeColor=none;fillColor=none;align=left;verticalAlign=middle;spacingLeft=4;spacingRight=4;overflow=hidden;rotatable=0;points=[[0,0.5],[1,0.5]];portConstraint=eastwest;whiteSpace=wrap;" vertex="1" parent="oHu9XfbpFMJG1xRi9u3c-69">
          <mxGeometry y="95" width="365" height="20" as="geometry" />
        </mxCell>
        <mxCell id="oHu9XfbpFMJG1xRi9u3c-95" value="-Proveedor: array" style="text;html=1;strokeColor=none;fillColor=none;align=left;verticalAlign=middle;spacingLeft=4;spacingRight=4;overflow=hidden;rotatable=0;points=[[0,0.5],[1,0.5]];portConstraint=eastwest;whiteSpace=wrap;" vertex="1" parent="oHu9XfbpFMJG1xRi9u3c-69">
          <mxGeometry y="115" width="365" height="20" as="geometry" />
        </mxCell>
        <mxCell id="oHu9XfbpFMJG1xRi9u3c-73" value="" style="line;strokeWidth=1;fillColor=none;align=left;verticalAlign=middle;spacingTop=-1;spacingLeft=3;spacingRight=3;rotatable=0;labelPosition=right;points=[];portConstraint=eastwest;" vertex="1" parent="oHu9XfbpFMJG1xRi9u3c-69">
          <mxGeometry y="135" width="365" height="8" as="geometry" />
        </mxCell>
        <mxCell id="oHu9XfbpFMJG1xRi9u3c-79" style="edgeStyle=orthogonalEdgeStyle;rounded=0;orthogonalLoop=1;jettySize=auto;html=1;exitX=1.004;exitY=0.44;exitDx=0;exitDy=0;endArrow=diamondThin;endFill=0;exitPerimeter=0;" edge="1" parent="1" source="oHu9XfbpFMJG1xRi9u3c-48">
          <mxGeometry relative="1" as="geometry">
            <mxPoint x="799" y="673" as="sourcePoint" />
            <mxPoint x="920" y="900" as="targetPoint" />
            <Array as="points">
              <mxPoint x="920" y="900" />
            </Array>
          </mxGeometry>
        </mxCell>
        <mxCell id="oHu9XfbpFMJG1xRi9u3c-81" value="1..*" style="text;html=1;align=center;verticalAlign=middle;resizable=0;points=[];autosize=1;strokeColor=none;fillColor=none;" vertex="1" parent="1">
          <mxGeometry x="710" y="870" width="40" height="30" as="geometry" />
        </mxCell>
        <mxCell id="oHu9XfbpFMJG1xRi9u3c-82" value="1" style="text;html=1;align=center;verticalAlign=middle;resizable=0;points=[];autosize=1;strokeColor=none;fillColor=none;" vertex="1" parent="1">
          <mxGeometry x="898" y="892" width="30" height="30" as="geometry" />
        </mxCell>
        <mxCell id="oHu9XfbpFMJG1xRi9u3c-83" value="&lt;div&gt;&lt;br&gt;&lt;/div&gt;&lt;div&gt;Proveedor&lt;/div&gt;" style="swimlane;fontStyle=0;align=center;verticalAlign=top;childLayout=stackLayout;horizontal=1;startSize=55;horizontalStack=0;resizeParent=1;resizeParentMax=0;resizeLast=0;collapsible=0;marginBottom=0;html=1;whiteSpace=wrap;" vertex="1" parent="1">
          <mxGeometry x="942.5" y="1118" width="320" height="143" as="geometry" />
        </mxCell>
        <mxCell id="oHu9XfbpFMJG1xRi9u3c-84" value="-Id: int" style="text;html=1;strokeColor=none;fillColor=none;align=left;verticalAlign=middle;spacingLeft=4;spacingRight=4;overflow=hidden;rotatable=0;points=[[0,0.5],[1,0.5]];portConstraint=eastwest;whiteSpace=wrap;" vertex="1" parent="oHu9XfbpFMJG1xRi9u3c-83">
          <mxGeometry y="55" width="320" height="20" as="geometry" />
        </mxCell>
        <mxCell id="oHu9XfbpFMJG1xRi9u3c-85" value="&lt;div&gt;&lt;span style=&quot;background-color: transparent; color: light-dark(rgb(0, 0, 0), rgb(255, 255, 255));&quot;&gt;-Nombre: string&lt;/span&gt;&lt;/div&gt;" style="text;html=1;strokeColor=none;fillColor=none;align=left;verticalAlign=middle;spacingLeft=4;spacingRight=4;overflow=hidden;rotatable=0;points=[[0,0.5],[1,0.5]];portConstraint=eastwest;whiteSpace=wrap;" vertex="1" parent="oHu9XfbpFMJG1xRi9u3c-83">
          <mxGeometry y="75" width="320" height="20" as="geometry" />
        </mxCell>
        <mxCell id="oHu9XfbpFMJG1xRi9u3c-86" value="-Contacto: string" style="text;html=1;strokeColor=none;fillColor=none;align=left;verticalAlign=middle;spacingLeft=4;spacingRight=4;overflow=hidden;rotatable=0;points=[[0,0.5],[1,0.5]];portConstraint=eastwest;whiteSpace=wrap;" vertex="1" parent="oHu9XfbpFMJG1xRi9u3c-83">
          <mxGeometry y="95" width="320" height="20" as="geometry" />
        </mxCell>
        <mxCell id="oHu9XfbpFMJG1xRi9u3c-87" value="-Direccion: string" style="text;html=1;strokeColor=none;fillColor=none;align=left;verticalAlign=middle;spacingLeft=4;spacingRight=4;overflow=hidden;rotatable=0;points=[[0,0.5],[1,0.5]];portConstraint=eastwest;whiteSpace=wrap;" vertex="1" parent="oHu9XfbpFMJG1xRi9u3c-83">
          <mxGeometry y="115" width="320" height="20" as="geometry" />
        </mxCell>
        <mxCell id="oHu9XfbpFMJG1xRi9u3c-88" value="" style="line;strokeWidth=1;fillColor=none;align=left;verticalAlign=middle;spacingTop=-1;spacingLeft=3;spacingRight=3;rotatable=0;labelPosition=right;points=[];portConstraint=eastwest;" vertex="1" parent="oHu9XfbpFMJG1xRi9u3c-83">
          <mxGeometry y="135" width="320" height="8" as="geometry" />
        </mxCell>
        <mxCell id="oHu9XfbpFMJG1xRi9u3c-92" value="1" style="text;html=1;align=center;verticalAlign=middle;resizable=0;points=[];autosize=1;strokeColor=none;fillColor=none;" vertex="1" parent="1">
          <mxGeometry x="1076.35" y="975" width="30" height="30" as="geometry" />
        </mxCell>
        <mxCell id="oHu9XfbpFMJG1xRi9u3c-93" value="1..*" style="text;html=1;align=center;verticalAlign=middle;resizable=0;points=[];autosize=1;strokeColor=none;fillColor=none;" vertex="1" parent="1">
          <mxGeometry x="1100" y="1088" width="40" height="30" as="geometry" />
        </mxCell>
      </root>
    </mxGraphModel>
  </diagram>
</mxfile>
